<svg id="图层_1" data-name="图层 1" xmlns="http://www.w3.org/2000/svg" xmlns:xlink="http://www.w3.org/1999/xlink" viewBox="0 0 14 12"><defs><style>.cls-1{fill:url(#未命名的渐变_3);}.cls-2{fill:url(#未命名的渐变_2);}</style><linearGradient id="未命名的渐变_3" x1="1.12" y1="14.99" x2="1.55" y2="14.08" gradientTransform="matrix(13, 0, 0, -13, -12, 196)" gradientUnits="userSpaceOnUse"><stop offset="0" stop-color="#fad961"/><stop offset="1" stop-color="#f76b1c"/></linearGradient><linearGradient id="未命名的渐变_2" x1="0.52" y1="14.98" x2="0.95" y2="14.07" gradientTransform="matrix(4, 0, 0, -12, 9, 182)" gradientUnits="userSpaceOnUse"><stop offset="0" stop-color="#fa8f21"/><stop offset="1" stop-color="#f76b1c"/></linearGradient></defs><title>小喇叭</title><g id="商机交流"><g id="我的发布页"><g id="喇叭"><path id="Shape" class="cls-1" d="M7.06,13a1.89,1.89,0,0,1-1-.35l0,0L3.29,10.39H2.14C1,10.4,0,10.18,0,8.77V5.21c0-1.4,1-1.62,2.14-1.62h1.1L5.8,1.46A2.15,2.15,0,0,1,7,1c.82,0,1.2.83,1.21,1.61v8.56a2.28,2.28,0,0,1-.4,1.48,1.7,1.7,0,0,1-.74.35m2.57-2.83a.57.57,0,0,1-.46-.24A.66.66,0,0,1,9,9.47a.63.63,0,0,1,.22-.42,2.72,2.72,0,0,0,0-4.11A.63.63,0,0,1,9,4.53a.66.66,0,0,1,.12-.46A.56.56,0,0,1,10,4a3.94,3.94,0,0,1,1.39,3A3.94,3.94,0,0,1,10,10a.56.56,0,0,1-.36.13" transform="translate(0 -1)"/><path id="Shape-2" data-name="Shape" class="cls-2" d="M11.12,13a.6.6,0,0,1-.49-.27.72.72,0,0,1-.12-.5.68.68,0,0,1,.24-.44,5.56,5.56,0,0,0,2-4.33,5.56,5.56,0,0,0-2-4.33.68.68,0,0,1-.24-.44.72.72,0,0,1,.12-.5.58.58,0,0,1,.86-.13A6.94,6.94,0,0,1,14,7.46a6.94,6.94,0,0,1-2.52,5.4.58.58,0,0,1-.37.13" transform="translate(0 -1)"/></g></g></g></svg>