<svg id="图层_1" data-name="图层 1" xmlns="http://www.w3.org/2000/svg" viewBox="0 0 24 24"><defs><style>.cls-1{fill:#fff;}.cls-2{fill:#bebebe;}</style></defs><title>QQ</title><ellipse class="cls-1" cx="12.08" cy="12.37" rx="7.92" ry="8.71"/><path class="cls-2" d="M12,0A12,12,0,1,0,24,12,12,12,0,0,0,12,0Zm5,14.6c-.46,0-.54-.63-.86-.83a2.35,2.35,0,0,1-.89,1.46c.42.32,1.18.42,1.14,1.11s-1.57,1.06-2.67,1A3.26,3.26,0,0,1,12,16.66c-.25.09-.52.33-.79.45-1.13.46-3.58.28-3.68-.73-.07-.71.74-.84,1.17-1.14a2,2,0,0,1-.89-1.43c-.33.09-.4.81-.86.79s-.56-1-.51-1.65a4.47,4.47,0,0,1,1.14-2.22A2.08,2.08,0,0,1,7.86,9.4a3.86,3.86,0,0,1,1.2-3A4.32,4.32,0,0,1,12,5.18a4.18,4.18,0,0,1,3,1.24,3.64,3.64,0,0,1,1.11,2,8.61,8.61,0,0,0,.09.92c0,.14.18.28.22.47a5.71,5.71,0,0,1,0,.83c0,.28.24.37.35.51a3.67,3.67,0,0,1,.79,1.68C17.59,13.55,17.49,14.56,17,14.6Z" transform="translate(0)"/></svg>