<?xml version="1.0" encoding="UTF-8"?>
<svg width="14px" height="12px" viewBox="0 0 14 12" version="1.1" xmlns="http://www.w3.org/2000/svg" xmlns:xlink="http://www.w3.org/1999/xlink">
    <!-- Generator: Sketch 49.1 (51147) - http://www.bohemiancoding.com/sketch -->
    <title>Shape</title>
    <desc>Created with Sketch.</desc>
    <defs></defs>
    <g id="商机交流" stroke="none" stroke-width="1" fill="none" fill-rule="evenodd">
        <g id="商机主页-copy-2" transform="translate(-465.000000, -473.000000)" fill="#0CB2CD" fill-rule="nonzero">
            <g id="Group" transform="translate(245.000000, 315.000000)">
                <path d="M223.776307,161.798582 C223.283429,161.798582 222.883602,162.151515 222.883602,162.587187 C222.883602,163.022859 223.283429,163.3745 223.776307,163.3745 C224.269184,163.3745 224.669011,163.021567 224.669011,162.587187 C224.669011,162.151515 224.269184,161.798582 223.776307,161.798582 Z M227.047619,161.798582 C226.554741,161.798582 226.156368,162.151515 226.156368,162.587187 C226.156368,163.022859 226.556195,163.3745 227.047619,163.3745 C227.540497,163.3745 227.940324,163.021567 227.940324,162.587187 C227.93887,162.151515 227.540497,161.798582 227.047619,161.798582 Z M230.318932,161.798582 C229.826054,161.798582 229.426227,162.151515 229.426227,162.587187 C229.426227,163.022859 229.826054,163.3745 230.318932,163.3745 C230.81181,163.3745 231.210183,163.021567 231.210183,162.587187 C231.210183,162.151515 230.810356,161.798582 230.318932,161.798582 Z M231.953134,158.112821 L222.142104,158.112821 C221.239222,158.112821 220.506448,158.781196 220.506448,159.606 L220.506448,165.99629 C220.506448,166.821094 221.255215,167.581258 222.178452,167.581258 L224.670465,167.581258 C225.105186,167.988489 226.902228,169.627754 226.902228,169.627754 C226.982193,169.70015 227.111592,169.70015 227.191557,169.627754 C227.191557,169.627754 228.507352,168.314273 229.365162,167.581258 L231.915332,167.581258 C232.83857,167.581258 233.587337,166.821094 233.587337,165.99629 L233.587337,159.607293 C233.588791,158.782489 232.856017,158.112821 231.953134,158.112821 Z M232.69754,165.9407 C232.69754,166.353102 232.304982,166.786188 231.842637,166.786188 L229.40878,166.786188 C229.104911,166.786188 228.831575,167.061554 228.831575,167.061554 L227.043257,168.645229 L225.310189,167.060261 C225.310189,167.060261 224.974334,166.784896 224.687912,166.784896 L222.252602,166.784896 C221.790256,166.784896 221.397699,166.351809 221.397699,165.939407 L221.397699,159.648662 C221.397699,159.23626 221.764086,158.901426 222.2148,158.901426 L231.877531,158.901426 C232.329699,158.901426 232.694632,159.234967 232.694632,159.648662 L232.694632,165.9407 L232.69754,165.9407 Z" id="Shape"></path>
            </g>
        </g>
    </g>
</svg>