<?xml version="1.0" encoding="UTF-8"?>
<svg width="14px" height="10px" viewBox="0 0 14 10" version="1.1" xmlns="http://www.w3.org/2000/svg" xmlns:xlink="http://www.w3.org/1999/xlink">
    <!-- Generator: Sketch 49.1 (51147) - http://www.bohemiancoding.com/sketch -->
    <title>Shape</title>
    <desc>Created with Sketch.</desc>
    <defs></defs>
    <g id="商机交流" stroke="none" stroke-width="1" fill="none" fill-rule="evenodd">
        <g id="商机主页-copy-2" transform="translate(-301.000000, -474.000000)" fill="#0CB2CD" fill-rule="nonzero">
            <g id="Group" transform="translate(245.000000, 315.000000)">
                <path d="M62.6014068,167.914369 C65.0025678,167.914369 68.2597097,164.900103 68.4878077,164.071456 C68.3995117,163.163754 65.3340867,159.880503 62.6014068,159.880503 C60.0036236,159.880503 56.7150059,162.495631 56.7150059,164.091221 C56.7832718,164.877446 59.9390367,167.914369 62.6014068,167.914369 Z M62.6014068,168.717949 C59.8732235,168.717949 56.0609613,165.564369 56.0609613,164.098451 C56.0609613,161.77641 59.896115,159.076923 62.6014068,159.076923 C65.5617759,159.076923 69.1418523,162.610359 69.1418523,164.098451 C69.1418523,165.336359 65.228622,168.717949 62.6014068,168.717949 Z M62.6014068,165.905662 C63.2963949,165.938912 63.9387728,165.470755 64.2243848,164.722857 C64.5099969,163.974958 64.3815179,163.097429 63.8997804,162.505764 C63.418043,161.914099 62.679737,161.727053 62.0344383,162.033189 C61.3891397,162.339324 60.9663666,163.077197 60.9662954,163.897436 C60.9491807,164.983702 61.6803219,165.881682 62.6014068,165.905662 Z M62.6014068,166.709723 C61.627927,166.756751 60.7279261,166.101327 60.3276226,165.053843 C59.927319,164.006359 60.1070774,162.777108 60.7817684,161.948233 C61.4564595,161.119357 62.490633,160.857262 63.3945296,161.286069 C64.2984262,161.714875 64.8905805,162.748497 64.8905627,163.897436 C64.9163394,165.419177 63.891812,166.677835 62.6014068,166.709723 Z" id="Shape"></path>
            </g>
        </g>
    </g>
</svg>