<svg id="图层_1" data-name="图层 1" xmlns="http://www.w3.org/2000/svg" viewBox="0 0 24 24"><defs><style>.cls-1{fill:#fff;}.cls-2{fill:#bebebe;}</style></defs><title>微信</title><circle class="cls-1" cx="12.54" cy="11.96" r="8.62"/><path class="cls-2" d="M12,9.8h.15A.58.58,0,1,0,12,8.65a.65.65,0,0,0-.69.57A.65.65,0,0,0,12,9.8Z"/><path class="cls-2" d="M16,12a.46.46,0,0,0,0,.9l0,0a.53.53,0,0,0,.58-.46A.53.53,0,0,0,16,12Z"/><path class="cls-2" d="M8.7,8.65a.65.65,0,0,0-.7.58.65.65,0,0,0,.72.57h0a.58.58,0,0,0,0-1.16Z"/><path class="cls-2" d="M12,0A12,12,0,1,0,24,12,12,12,0,0,0,12,0ZM10.24,14.55a7.88,7.88,0,0,1-1.62-.23L7,15.13l.46-1.42a3.8,3.8,0,0,1-1.85-3.12c0-2.21,2.08-3.94,4.62-3.94A4.62,4.62,0,0,1,14.89,9.9h-.45a3.79,3.79,0,0,0-3.91,3.65,3.45,3.45,0,0,0,.14,1Zm8.38-1A3.51,3.51,0,0,1,17,16.17l.39,1.16-1.27-.69a5.81,5.81,0,0,1-1.39.23,3.66,3.66,0,0,1-3.93-3.36,3.66,3.66,0,0,1,3.93-3.36c2.08,0,3.93,1.51,3.93,3.36Z"/><path class="cls-2" d="M13.44,12a.47.47,0,0,0,0,.93h.14a.47.47,0,1,0-.14-.93Z"/></svg>