<svg id="图层_1" data-name="图层 1" xmlns="http://www.w3.org/2000/svg" viewBox="0 0 105.854 44.963"><defs><style>.cls-1{fill:#fff;}.cls-2{fill:#1a1a1a;}.cls-3{fill:#f7931e;}</style></defs><title>医贝</title><g id="_编组_" data-name="&lt;编组&gt;"><g id="_编组_2" data-name="&lt;编组&gt;"><g id="_编组_3" data-name="&lt;编组&gt;"><g id="_编组_4" data-name="&lt;编组&gt;"><path id="_路径_" data-name="&lt;路径&gt;" class="cls-1" d="M51.654,19.713c0-4.12-3.733-7.461-8.337-7.461s-8.337,3.34-8.337,7.461a7.434,7.434,0,0,0,4.656,6.695A4.255,4.255,0,0,0,38.27,29.49a4.8,4.8,0,0,0,5.047,4.516,4.8,4.8,0,0,0,5.047-4.516A4.255,4.255,0,0,0,47,26.407,7.434,7.434,0,0,0,51.654,19.713Z" transform="translate(-0.146 -0.15)"/><path id="_复合路径_" data-name="&lt;复合路径&gt;" class="cls-2" d="M43.317,35.052a5.852,5.852,0,0,1-6.092-5.562,5.16,5.16,0,0,1,.8-2.751,8.251,8.251,0,0,1-4.089-7.027c0-4.69,4.209-8.506,9.382-8.506S52.7,15.023,52.7,19.713A8.251,8.251,0,0,1,48.61,26.74a5.16,5.16,0,0,1,.8,2.751A5.852,5.852,0,0,1,43.317,35.052Zm0-21.754c-4.021,0-7.291,2.878-7.291,6.415a6.359,6.359,0,0,0,4.033,5.738l1.431.631-1.131,1.081a3.219,3.219,0,0,0-1.043,2.327,3.769,3.769,0,0,0,4,3.471,3.769,3.769,0,0,0,4-3.471,3.219,3.219,0,0,0-1.043-2.327l-1.131-1.081,1.431-.631a6.359,6.359,0,0,0,4.033-5.738C50.608,16.176,47.337,13.3,43.317,13.3Z" transform="translate(-0.146 -0.15)"/></g><g id="_编组_5" data-name="&lt;编组&gt;"><path id="_路径_2" data-name="&lt;路径&gt;" class="cls-1" d="M1.191,19.713c0-4.12,3.733-7.461,8.337-7.461s8.337,3.34,8.337,7.461a7.434,7.434,0,0,1-4.656,6.695,4.255,4.255,0,0,1,1.366,3.083,4.8,4.8,0,0,1-5.047,4.516A4.8,4.8,0,0,1,4.482,29.49a4.255,4.255,0,0,1,1.366-3.083A7.434,7.434,0,0,1,1.191,19.713Z" transform="translate(-0.146 -0.15)"/><path id="_复合路径_2" data-name="&lt;复合路径&gt;" class="cls-2" d="M9.528,35.052A5.852,5.852,0,0,1,3.436,29.49a5.16,5.16,0,0,1,.8-2.751A8.251,8.251,0,0,1,.146,19.713c0-4.69,4.209-8.506,9.382-8.506s9.382,3.816,9.382,8.506a8.251,8.251,0,0,1-4.089,7.027,5.16,5.16,0,0,1,.8,2.751A5.852,5.852,0,0,1,9.528,35.052Zm0-21.754c-4.021,0-7.291,2.878-7.291,6.415a6.359,6.359,0,0,0,4.033,5.738l1.431.631L6.57,27.163A3.219,3.219,0,0,0,5.527,29.49a3.769,3.769,0,0,0,4,3.471,3.769,3.769,0,0,0,4-3.471,3.219,3.219,0,0,0-1.043-2.327l-1.131-1.081,1.431-.631a6.359,6.359,0,0,0,4.033-5.738C16.82,16.176,13.549,13.3,9.528,13.3Z" transform="translate(-0.146 -0.15)"/></g></g><path id="_路径_3" data-name="&lt;路径&gt;" class="cls-2" d="M24.505,40.369l.024.006.8,2.014,1.086,2.724L27.5,42.389l.8-2.014.024-.006a8.514,8.514,0,0,1-3.827,0Z" transform="translate(-0.146 -0.15)"/><g id="_编组_6" data-name="&lt;编组&gt;"><circle id="_路径_4" data-name="&lt;路径&gt;" class="cls-3" cx="26.273" cy="23.631" r="16.481"/><path id="_复合路径_3" data-name="&lt;复合路径&gt;" class="cls-2" d="M26.418,41.236A17.454,17.454,0,1,1,43.873,23.782,17.474,17.474,0,0,1,26.418,41.236Zm0-32.961A15.507,15.507,0,1,0,41.925,23.782,15.524,15.524,0,0,0,26.418,8.275Z" transform="translate(-0.146 -0.15)"/></g><g id="_编组_7" data-name="&lt;编组&gt;"><rect id="_矩形_" data-name="&lt;矩形&gt;" class="cls-1" x="22.198" y="17.915" width="8.448" height="8.448" transform="translate(23.248 -12.35) rotate(45)"/><path id="_复合路径_4" data-name="&lt;复合路径&gt;" class="cls-2" d="M26.422,29.158a1.046,1.046,0,0,1-.739-.306L19.71,22.878a1.046,1.046,0,0,1,0-1.479l5.974-5.974a1.046,1.046,0,0,1,1.479,0L33.135,21.4a1.046,1.046,0,0,1,0,1.479l-5.974,5.974A1.046,1.046,0,0,1,26.422,29.158Zm-4.5-7.019,4.5,4.5,4.5-4.5-4.5-4.495Z" transform="translate(-0.146 -0.15)"/></g><g id="_编组_8" data-name="&lt;编组&gt;"><g id="_编组_9" data-name="&lt;编组&gt;"><path id="_路径_5" data-name="&lt;路径&gt;" class="cls-2" d="M30.681,7.468a.784.784,0,0,1-.782-.733,5.328,5.328,0,0,1,1.056-3.619,2.784,2.784,0,0,1,2.09-.87.784.784,0,0,1,0,1.568,1.207,1.207,0,0,0-.945.374,3.86,3.86,0,0,0-.636,2.444.784.784,0,0,1-.731.834Z" transform="translate(-0.146 -0.15)"/></g><g id="_编组_10" data-name="&lt;编组&gt;"><path id="_路径_6" data-name="&lt;路径&gt;" class="cls-2" d="M22.141,7.468l-.052,0a.784.784,0,0,1-.731-.832,3.826,3.826,0,0,0-.638-2.448,1.207,1.207,0,0,0-.943-.372.784.784,0,1,1,0-1.568,2.784,2.784,0,0,1,2.09.87,5.328,5.328,0,0,1,1.056,3.619A.784.784,0,0,1,22.141,7.468Z" transform="translate(-0.146 -0.15)"/></g></g><g id="_编组_11" data-name="&lt;编组&gt;"><path id="_路径_7" data-name="&lt;路径&gt;" class="cls-2" d="M42.27,28.732q.227-.775.376-1.566l-.481-.526-.618.549c-.035.031-3.65,3.123-15.124,3.123-11.391,0-15.036-3.047-15.122-3.122l-.608-.562-.493.533q.149.792.376,1.57c1.254.871,5.616,3.25,15.847,3.25S41.016,29.6,42.27,28.732Z" transform="translate(-0.146 -0.15)"/><path id="_路径_8" data-name="&lt;路径&gt;" class="cls-2" d="M40.223,32.374a16.38,16.38,0,0,0,1.454-2.745l-.131.116c-.035.031-3.65,3.123-15.124,3.123-11.391,0-15.036-3.047-15.122-3.122l-.135-.125a16.387,16.387,0,0,0,1.457,2.753c2.359,1,6.642,2.163,13.8,2.163S37.865,33.372,40.223,32.374Z" transform="translate(-0.146 -0.15)"/><path id="_路径_9" data-name="&lt;路径&gt;" class="cls-2" d="M14.379,33.806c.121.129.241.26.368.387a16.54,16.54,0,0,0,2.6,2.12,47.376,47.376,0,0,0,9.072.779,47.376,47.376,0,0,0,9.072-.779,16.533,16.533,0,0,0,2.6-2.12c.126-.126.246-.257.368-.387a37.366,37.366,0,0,1-12.044,1.616A37.367,37.367,0,0,1,14.379,33.806Z" transform="translate(-0.146 -0.15)"/></g><g id="_编组_12" data-name="&lt;编组&gt;"><circle id="_路径_10" data-name="&lt;路径&gt;" cx="34.207" cy="2.226" r="1.181"/><path id="_复合路径_5" data-name="&lt;复合路径&gt;" class="cls-2" d="M34.353,4.6a2.226,2.226,0,1,1,2.226-2.226A2.229,2.229,0,0,1,34.353,4.6Zm0-2.362a.135.135,0,1,0,.135.135A.135.135,0,0,0,34.353,2.241Z" transform="translate(-0.146 -0.15)"/></g><g id="_编组_13" data-name="&lt;编组&gt;"><circle id="_路径_11" data-name="&lt;路径&gt;" cx="18.328" cy="2.226" r="1.181"/><path id="_复合路径_6" data-name="&lt;复合路径&gt;" class="cls-2" d="M18.474,4.6A2.226,2.226,0,1,1,20.7,2.377,2.229,2.229,0,0,1,18.474,4.6Zm0-2.362a.135.135,0,1,0,.135.135A.135.135,0,0,0,18.474,2.241Z" transform="translate(-0.146 -0.15)"/></g></g><g id="_编组_14" data-name="&lt;编组&gt;"><g id="_编组_15" data-name="&lt;编组&gt;"><path id="_复合路径_7" data-name="&lt;复合路径&gt;" class="cls-3" d="M83.44,25.2v1.6H78.533a13.34,13.34,0,0,0,5.409,6.253l-1.118,1.232c-1.666-.639-4.862-1.848-6.961-4.519-1.94,2.373-5.021,3.72-7.189,4.519l-1.141-1.437c4.382-2.259,5.227-4.587,5.591-6.048H68.08V25.2h5.295c.068-.753.137-1.666.137-3.149H72.028a14.113,14.113,0,0,1-2.967,2.716l-1.369-.753a13.4,13.4,0,0,0,1.917-5.979H67.4V34.644H84.033v1.62H67.4v1.187H63.264V16.409H83.645v1.62H69.952l4.222.8c-.16.3-.844,1.392-.981,1.6h9.2v1.62H77.711c0,1.734-.046,2.625-.069,3.149Z" transform="translate(-0.146 -0.15)"/><g id="_编组_16" data-name="&lt;编组&gt;"><g id="_编组_17" data-name="&lt;编组&gt;"><path id="_路径_12" data-name="&lt;路径&gt;" class="cls-3" d="M98.041,29.737V20.72H94.367v9.017c0,2.745-2.245,5.663-7.959,6.207v1.508a15.192,15.192,0,0,0,9.8-3.872,15.571,15.571,0,0,0,9.8,3.872V35.944C100.286,35.4,98.041,32.482,98.041,29.737Z" transform="translate(-0.146 -0.15)"/></g><polygon id="_路径_13" data-name="&lt;路径&gt;" class="cls-3" points="105 31.667 105 16.087 87.116 16.087 87.116 31.667 91.291 31.667 91.291 17.707 100.826 17.707 100.826 31.667 105 31.667"/></g></g><g id="_编组_18" data-name="&lt;编组&gt;"><path id="_复合路径_8" data-name="&lt;复合路径&gt;" class="cls-2" d="M68.09,9.452l-1.807,2.409h-.206L64.31,9.444v4.033H63.264V7.93h1.2L66.2,10.316,67.94,7.93h1.2v5.547H68.09Z" transform="translate(-0.146 -0.15)"/><path id="_复合路径_9" data-name="&lt;复合路径&gt;" class="cls-2" d="M74.129,13.469H69.976V7.922h4.152V8.937H71.015v1.276h3v.975h-3v1.252h3.114Z" transform="translate(-0.146 -0.15)"/><path id="_复合路径_10" data-name="&lt;复合路径&gt;" class="cls-2" d="M79.767,10.648a2.627,2.627,0,0,1-2.774,2.821H74.815V7.922h2.179A2.62,2.62,0,0,1,79.767,10.648Zm-3.915,1.815h1.141a1.647,1.647,0,0,0,1.735-1.823,1.649,1.649,0,0,0-1.735-1.727H75.853Z" transform="translate(-0.146 -0.15)"/><path id="_复合路径_11" data-name="&lt;复合路径&gt;" class="cls-2" d="M80.3,13.469V7.922h1.038v5.547Z" transform="translate(-0.146 -0.15)"/><path id="_复合路径_12" data-name="&lt;复合路径&gt;" class="cls-2" d="M86.974,12.772a2.923,2.923,0,0,1-2.108.824,2.727,2.727,0,0,1-2.94-2.861,2.792,2.792,0,0,1,2.94-2.924,2.862,2.862,0,0,1,2.036.848l-.7.674a1.906,1.906,0,0,0-1.339-.523,1.819,1.819,0,0,0-1.91,1.926,1.778,1.778,0,0,0,1.91,1.878,2.042,2.042,0,0,0,1.395-.563Z" transform="translate(-0.146 -0.15)"/><path id="_复合路径_13" data-name="&lt;复合路径&gt;" class="cls-2" d="M91.273,12.423h-2.9L87.9,13.469H86.764l2.488-5.547h1.141l2.488,5.547H91.74Zm-1.45-3.336-1.03,2.361h2.06Z" transform="translate(-0.146 -0.15)"/><path id="_复合路径_14" data-name="&lt;复合路径&gt;" class="cls-2" d="M94.142,7.922V12.5h2.853v.967H93.1V7.922Z" transform="translate(-0.146 -0.15)"/><path id="_复合路径_15" data-name="&lt;复合路径&gt;" class="cls-2" d="M96.864,10.442h2.924v.888H96.864Z" transform="translate(-0.146 -0.15)"/><path id="_复合路径_16" data-name="&lt;复合路径&gt;" class="cls-2" d="M105.025,9.531a1.128,1.128,0,0,1-.721,1.07,1.353,1.353,0,0,1,.888,1.236c0,1.236-.927,1.632-2.076,1.632h-2.631V7.922h2.631C104.208,7.922,105.025,8.414,105.025,9.531Zm-3.51.618h1.6c.658,0,.872-.277.872-.594,0-.254-.206-.681-.872-.681h-1.6Zm0,2.346h1.6c.428,0,1.038-.143,1.038-.666,0-.5-.61-.761-1.038-.761h-1.6Z" transform="translate(-0.146 -0.15)"/></g></g></g></svg>